<?xml version="1.0" encoding="UTF-8"?>
<svg viewBox="0 0 490 625" xmlns="http://www.w3.org/2000/svg">
 <defs>
  <filter id="a" x="-1.1694" y="-1.1345" width="3.3388" height="3.2689">
   <feGaussianBlur stdDeviation="1.4139"/>
  </filter>
  <filter id="b" x="-.23135" y="-.45442" width="1.4627" height="1.9088">
   <feGaussianBlur stdDeviation=".7913"/>
  </filter>
 </defs>
 <g transform="matrix(4.2103 0 0 4.3648 -309.41 -61.723)">
  <path d="m119.82 101.42c5.7313-1.0707 8.5627-2.6827 12.589-5-8.8789-2.8384-11.785-11.051-15.357-17.946 0.0306 7.8272 0.71188 15.596 2.7679 22.946z" fill="#a14f16" stroke="#000"/>
  <path d="m155.04 100.4c-0.61493-2.4468-4.7822-2.5188-5.9821-2.6339 4.8266-1.1152 9.4194-4.1828 11.429-11.384 0.23828 3.0604-2.3951 9.2001-5.0446 14.107z" fill="#a14f16" stroke="#000"/>
  <path d="m138.41 99.86c-5.6391-0.53063-7.8448-3.0779-11.241-4.9262-7.447-6.5132-9.6692-11.382-10.26-15.738-0.85853-8.1487-1.1237-15.887 2.1566-21.176 5.562-15.983 16.463-24.729 34.833-23.351 7.7863 6.2425 10.837 17.254 9.9989 32.18-1.6275 9.6008 0.10972 16.496-5.277 25.39-3.5026 5.0375-13.104 7.5954-20.21 7.6217z" fill="#fadec1" stroke="#532f2f" stroke-width="1.0066"/>
  <path transform="matrix(.74415 0 0 .52886 -29.054 -104.7)" d="m250.34 325.95c0 4.1223-2.6884 7.4641-6.0048 7.4641s-6.0048-3.3418-6.0048-7.4641 2.6884-7.4641 6.0048-7.4641 6.0037 3.3403 6.0048 7.4617l-6.0048 2e-3z"/>
  <path transform="matrix(.77749 0 0 .54228 -61.303 -111.87)" d="m250.34 325.95c0 4.1223-2.6884 7.4641-6.0048 7.4641s-6.0048-3.3418-6.0048-7.4641 2.6884-7.4641 6.0048-7.4641 6.0037 3.3403 6.0048 7.4617l-6.0048 2e-3z"/>
  <path transform="matrix(.57091 0 0 .4648 12.024 -84.919)" d="m252.93 329.11c0.17128 3.4712-2.4887 6.4248-5.9413 6.597s-6.3903-2.5022-6.5615-5.9734c-8e-3 -0.16457-0.01-0.32939-5e-3 -0.49409l6.2565 0.18229z" fill="#9d9de0"/>
  <path d="m154.19 34.25c-7.8131 0.36595-15.558 1.4076-23.031 5.1875-9.141 9.0504-16.12 22.458-13.5 35.25 0.64367 10.85 8.3369 18.931 17.25 23.125 2.0911 0.90432 6.4411 0.75378 8.875 0.28125 4.8541-0.32803 8.264-2.0495 12.062-4.6875 2.8393-1.5936 8.2852-20.689 7.875-25.562 0.84947-13.857-2.4902-25.248-9.5312-33.594zm-30.219 26.219c1.3264-0.04237 2.7404 0.09991 3.9688 0.25 3.3273 0.40657 7.5687 2.9529 7.9062 5.375-0.88318 2.0705-4.7106 3.1433-8.9375 2.4062-4.5087-0.78621-7.7594-3.3087-7.25-5.6562 0.15252-0.70289 0.63689-1.3296 1.3438-1.8125 0.81378-0.34689 1.8634-0.52719 2.9688-0.5625zm30.406 3.5625c2.9974 0.02037 5.7143 0.6622 6.75 1.8438 0.0122 0.01394 0.0223 0.04403 0.0312 0.0625-0.95005 2.4468-3.4199 4.8601-8.1875 5.1875-3.3066 0.22708-6.1018-1.3764-7.2188-3.5 0.56916-2.1122 1.1064-2.837 5.5938-3.4062 1.0102-0.12814 2.0321-0.1943 3.0312-0.1875z" fill="#ebaf75" opacity=".99"/>
  <path transform="matrix(.59648 0 0 .4766 -18.384 -91.58)" d="m252.93 329.11c0.17128 3.4712-2.4887 6.4248-5.9413 6.597s-6.3903-2.5022-6.5615-5.9734c-8e-3 -0.16457-0.01-0.32939-5e-3 -0.49409l6.2565 0.18229z" fill="#9d9de0"/>
  <path transform="matrix(-1.4985 0 0 1.2142 342.51 -14.109)" d="m120.31 71.514c2.8125 2.8125 2.9018 2.9911 2.9018 2.9911" fill="#f0f" filter="url(#a)" stroke="#ff0057"/>
  <path transform="matrix(.22594 0 0 .17496 97.733 10.915)" d="m250.34 325.95c0 4.1223-2.6884 7.4641-6.0048 7.4641s-6.0048-3.3418-6.0048-7.4641 2.6884-7.4641 6.0048-7.4641 6.0037 3.3403 6.0048 7.4617l-6.0048 2e-3z"/>
  <path d="m145.77 117.26c14.773-20.283 19.17-41.927 16.324-65.126-0.96648-8.8488-4.123-13.716-7.6786-17.857-20.236-0.97473-26.033 7.0856-32.321 16.339-5.0145 7.7537-7.6405 37.384-1.0714 55.446-0.98603 0.13715-2.1715-0.32394-3.3929-0.89285-0.48046 3.3886-1.3711 6.367-2.3214 9.2857-2.4534-3.0254-4.2727-6.558-5.5357-10.536l-1.9643 5.5357c-6.8273-15.439-6.4035-33.745-3.0357-53.214 5.1978-15.184 10.798-29.577 25.714-37.321 9.4298-4.1795 19.875-5.8271 32.143 2.0536 19.134 1.874 24.995 22.14 25.884 50.16 0.91506 21.868-8.2334 40.249-14.812 56.894 0.71045-6.0599 0.0698-8.0666-0.35715-10.714-0.84751 3.7114-3.5064 7.9535-5.5357 11.429 0.94404-3.4865 0.44481-6.0108 0-8.5714l-3.0357 3.9286c1.3349-6.0895 3.4405-12.41-2.1429-16.429-1.2978-0.34352-3.2743-0.42156-5.4464-0.80357-2.782 4.1732-7.5622 7.0762-11.413 10.394z" stroke="#000"/>
  <path transform="matrix(.44278 -.54714 .70501 .38377 -161.31 46.877)" d="m193.45 322.69c0 0.75143-0.80332 1.3606-1.7943 1.3606s-1.7943-0.60916-1.7943-1.3606 0.80332-1.3606 1.7943-1.3606 1.7939 0.60889 1.7943 1.3602l-1.7943 4.5e-4z" fill="#fff"/>
  <path transform="matrix(.23606 0 0 .1794 71.163 6.6865)" d="m250.34 325.95c0 4.1223-2.6884 7.4641-6.0048 7.4641s-6.0048-3.3418-6.0048-7.4641 2.6884-7.4641 6.0048-7.4641 6.0037 3.3403 6.0048 7.4617l-6.0048 2e-3z"/>
  <path d="m161.25 44.104-2.0203-9.9753c2.2308-0.22332 4.4615 2.5041 6.6923 5.0508-0.20696-2.7358-0.92814-5.4717-3.0305-8.2075 3.5452 1.4154 6.7764 4.7146 10.102 7.4499-1.237-2.9042-2.9491-5.8084-6.3135-8.7126l6.3135 4.0406c-1.5031-3.023-4.2634-5.7316-8.46-8.0812l8.3338 2.3991c-2.8799-1.9184-4.947-4.6495-10.354-4.0406-5.9838-8.2838-13.748-4.4821-20.693-4.3212 4.3859 0.49728 10.167 0.43643 12.42 1.7868-6.9308 0.03626-14.315 0.39499-20.31 3.0331 5.1503 0.05082 10.301-0.85612 15.451 0.25888-4.6056 0.49995-9.4369 1.211-13.816 2.8455 3.4621-0.26975 6.8503-0.48031 9.1437 0.18492-3.8721 0.47723-6.6372 2.4305-9.0914 4.7982 3.4977-1.1842 6.9281-2.2786 9.7227-2.5254-2.9973 1.1215-5.5445 2.9932-7.8287 5.3033 7.7698-3.7541 11.473-1.5463 16.92-1.894 2.855 3.286 5.6002 6.6191 6.8185 10.607z" fill="#760000"/>
  <path d="m128.12 60.433c-2.7892-0.16903-5.9791-0.4802-7.6142 1.01 2.2932-0.47494 5.0301-0.49853 7.9226 0.07313 1.9867 0.39265 3.8318 1.0215 5.4257 1.8002-1.3728-1.592-3.5037-2.7482-5.7341-2.8833z"/>
  <path transform="matrix(.46261 -.56102 .73659 .39351 -199.49 43.561)" d="m193.45 322.69c0 0.75143-0.80332 1.3606-1.7943 1.3606s-1.7943-0.60916-1.7943-1.3606 0.80332-1.3606 1.7943-1.3606 1.7939 0.60889 1.7943 1.3602l-1.7943 4.5e-4z" fill="#fff"/>
  <path d="m154.77 63.612c-2.9428 0.11184-6.2578 0.40197-7.8799 1.7694 2.3553-0.70279 5.2232-1.001 8.3162-0.72261 2.1245 0.19124 4.125 0.63172 5.8779 1.2465-1.6058-1.4462-3.9611-2.3827-6.3142-2.2933z"/>
  <path transform="matrix(.11092 -.21366 .26377 .09531 46.503 75.832)" d="m193.45 322.69c0 0.75143-0.80332 1.3606-1.7943 1.3606s-1.7943-0.60916-1.7943-1.3606 0.80332-1.3606 1.7943-1.3606 1.7939 0.60889 1.7943 1.3602l-1.7943 4.5e-4z" fill="#fff"/>
  <path d="m136.12 59.958c-5.1515-4.3788-10.388-4.8717-15.314-4.1378 4.7866-1.881 9.6334-2.5027 15.669 2.8941 0.73789 1.2803 0.68593 1.0305-0.35476 1.2437z" fill="#c05a17"/>
  <path d="m146.16 61.883c5.9963-3.4801 11.085-3.368 15.724-1.8329-4.2483-2.6457-7.7482-4.0569-15.92 0.28398-1.0042 1.1439-0.77167 1.1671 0.19554 1.5489z" fill="#c05a17"/>
  <path transform="matrix(1.4985 0 0 1.2142 -59.656 -15.119)" d="m120.31 71.514c2.8125 2.8125 2.9018 2.9911 2.9018 2.9911" fill="#f0f" filter="url(#a)" stroke="#ff0057"/>
  <path transform="matrix(.11589 -.21908 .27558 .09773 17.639 73.251)" d="m193.45 322.69c0 0.75143-0.80332 1.3606-1.7943 1.3606s-1.7943-0.60916-1.7943-1.3606 0.80332-1.3606 1.7943-1.3606 1.7939 0.60889 1.7943 1.3602l-1.7943 4.5e-4z" fill="#fff"/>
  <path d="m134.14659,79.3831c-.0169.72083.11854,1.40489.28411,1.95717 .36323.82854.96264,1.53899 1.8309,2.11501 1.13104.03588 2.12727.03601 2.84105-.0947 .41384-.47005.99732-.80201 1.8309-.85232 .6814.14761.82325-.22152 1.42053-.41038-.29295-.64797-.31145-1.22797-.44194-1.95717-.8524-.42242-1.24235-.9655-2.11501-.72605-.97506.80886-1.78938.23967-2.33598.78918-.72039-.28507-1.23791-.45496-1.79933-.56821-.43326-.29669-.9165-.44547-1.51523-.25254z" fill="#ba7e4f" filter="url(#b)"/>
  <path d="m135 79.993c1.1354 0.58701 0.6262 1.5611 2.2097 1.7362 1.3767 0.15227 2.1609-1.4867 3.0305-1.3258s1.439 0.40725 1.389 0.82075" fill="none" stroke="#000" stroke-width=".6"/>
  <path d="m138.2 94.383c-4.9106-1.1933-8.0057-5.4528-7.9284-8.3099 0.57263-1.1651 2.2837-0.39045 3.8687-0.53065 2.8287-0.55957 4.4792 0.11835 5.247 0.45519 1.2934-0.84023 4.1582-0.19154 6.5333 0.57885 1.8024 0.58463 3.0941 0.60547 3.0948 2.1408-3.5052 4.7063-7.3755 5.9558-10.815 5.6657z" fill="#f00"/>
  <path d="m138.25 92.456c-4.1619-0.75625-6.3-3.2262-6.2345-5.037 0.48534-0.73839 1.5732-0.24746 2.9166-0.33631 2.3974-0.35464 3.7963 0.43733 4.447 0.6508 1.0962-0.53251 3.5242-0.48371 5.5372 0.0045 1.5276 0.37052 2.0426 0.2388 2.0433 1.2119-2.9708 2.9828-5.7942 3.6899-8.7096 3.5061z" fill="#fff"/>
  <path d="m130.84749,68.51355c.74995-.33327 1.53719-1.01261 1.96484-1.69553 .64272-1.02639.70648-2.48169.15599-3.56073-.0834-.16356-.15172-.31116-.15172-.32799s.25188.07124.55972.19573c.4819.19487.64515.31194 1.17412.84192 .63751.63873 1.09404,1.3612 1.19138,1.88536 .065.34983-.0909.63944-.6262,1.16356-.73568.7203-2.11677,1.29872-3.67123,1.53755-.87468.13439-.97408.12775-.5969-.03987z" fill="#fff"/>
  <path d="m125.12497,68.04013c-2.7814-.85059-4.80207-2.33895-5.35876-3.94708-.17098-.49392-.10387-1.30093.14983-1.80162 .31525-.62215.56232-.81641 1.1645-.91558 1.3432-.22121 3.30719-.29502 4.78624-.17989l.59737.0465-.45292.27138c-.88713.53155-1.55633,1.33583-1.8662,2.24293-.21604.63245-.21678,1.65453-.002,2.26103 .2815.79351.70749,1.37981 1.40332,1.93144 .40498.32105.36151.33042-.42176.09088z" fill="#fff"/>
  <path d="m149.35466,70.57824c-1.28265-.47289-2.61982-1.49732-3.3084-2.53463-.279-.42029-.27178-.55979.0718-1.3875 .29817-.71841.75038-1.21233 1.23985-1.35421 .3712-.1076 1.41743-.33873 1.95575-.43206l.28319-.0491-.35819.39191c-1.31914,1.44335-1.27276,3.62459.10724,5.04366 .43037.44255.43133.47771.009.32193z" fill="#fff"/>
  <path d="m156.29635,70.15546c1.28996-1.46547 1.27787-3.56143-.0287-4.97265l-.38458-.4154 .27504.03846c.85485.11955 2.09985.35027 2.73058.50604 .68269.1686 2.14038.59452 2.18925.63968 .0124.01148-.0936.26573-.23562.565-.49036,1.03334-1.39193,2.07651-2.43305,2.8152-.48969.34744-1.80358,1.00981-2.19146,1.10478l-.21533.05272 .29384-.33382z" fill="#fff"/>
  <path d="m131.25 103.51s0.25457 9.0864-4.0855 15.831c5.743-6.8689 12.893-12.595 22.981-15.933l-2.0428-5.209c-4.3585 1.0191-8.3927 3.2244-13.789 0.61282-0.58607 1.7293-0.44444 3.7316-3.0641 4.6983z" fill="#ebaf75" stroke="#000"/>
  <path d="m129.92 98.298c-8.0688 6.8432-9.703 8.7838-9.703 8.7838 3.4754-1.3807 7.1984-4.495 9.9073-0.51068l1.2256-8.9881z" fill="none" stroke="#000"/>
  <path d="m114.93 114.88c-1.3052 4.0544-7.0661 5.8089 0.0793 15.083 2.7789 2.9972 7.0105 5.7487 6.9407 9.0048-1.0449 4.5404-7.8754 9.8429-8.6817 17.891 14.606 0.24621 32.382 0.73327 46.988 0.1875 0.73454-1.3729-3.6034-6.7979-5.209-7.6769l10.827-30.233" fill="none" stroke="#000" stroke-width=".6"/>
  <path d="m131.15271,102.93937c.008-.19232.61523-4.4336.63792-4.45629s.34061.11867.71715.30346 .77397.36715.88319.40522 .19851.10584.19842.1506c-.00025.13098-.30531,1.23814-.44433,1.61262-.21397.5764-.43946.93233-.80494,1.27059-.35548.32901-1.19239.8321-1.18741.71379z"/>
  <path d="m148.85 124.99-7.4246 25.456-17.147 6.364" fill="none" stroke="#000"/>
  <path d="m154.99 149.65c-0.99773 1.6687-1.8066 4.8078-3.9333 5.3475l-3.5797 2.2981" fill="none" stroke="#000"/>
  <g fill="#2054c7">
   <path d="m111.72 121.46c-1.4032 2.048-8.7242-6.3838-13.258-10.076-1.813 3.5958-3.628 7.1902-8.662 8.4853 7.5424 6.3053 14.596 15.053 22.627 18.915 3.0889 2.379 6.7139-1.1387 10.253-3.7123" stroke="#000"/>
   <path d="m120.96369,104.15606c-.34796-1.10417-.67716-2.19075-.67716-2.23508 0-.0159.30826-.0947.68501-.17515 1.9396-.41421 4.12714-1.07653 5.67084-1.71694 .36013-.14941.66435-.26137.67603-.2488s-.5793.53992-1.3133,1.1719-2.08125,1.83516-2.99389,2.67374-1.67618,1.5247-1.69676,1.5247-.17842-.44746-.35077-.99437z"/>
   <path d="m129.26509,104.87592c-.64024-.48758-1.28563-.70948-2.21807-.76263-.95642-.0545-1.93933.15958-3.17593.69178-.43487.18716-.80202.32894-.81589.31506-.0652-.0652 6.71168-6.02447 7.25795-6.3824 .12757-.08359.25446-.12946.28198-.10194 .0533.05334-.73485,6.07946-.83556,6.38827-.0568.17421-.0805.16711-.49448-.14814z"/>
   <path d="m130.68 156.57-3.2671-0.19749 7.2439-2.6516 7.2439-2.6516 0.51216-1.591c1.3268-4.1217 6.9139-23.684 6.9139-24.208 0-0.36609-0.22842-0.54858-0.59765-0.47747-0.46005 0.0886-1.4208 2.944-4.1726 12.401-1.9662 6.7572-3.7258 12.432-3.9101 12.611s-3.9945 1.7196-8.467 3.4242l-8.1317 3.0992-5.0874 0.1294-5.0874 0.12941 0.19351-1.1678c0.40138-2.4222 1.759-5.2171 4.8409-9.9655 1.749-2.6948 3.276-5.4116 3.3934-6.0372 0.34872-1.8588-0.64568-3.5124-4.5446-7.5571-4.5049-4.6735-5.8482-7.1921-5.6056-10.511 0.0557-0.76207 2.7873-5.5508 3.2787-5.7478 0.35157-0.14091 1.9585-5.3597 2.2878-7.4301 0.28753-1.8078 0.94395-2.1935 2.0179-1.1857l0.7775 0.72962 2.7544-1.2152c1.5149-0.66838 3.1335-1.2152 3.5968-1.2152 0.9606 0 2.8777 1.4758 3.1883 2.4544 0.40888 1.2883-1.0637 6.5514-2.7477 9.8204-0.60239 1.1694-0.67564 1.5841-0.33919 1.9206s1.3276-0.44743 4.5897-3.63c5.547-5.4118 10.267-8.499 16.953-11.089l2.5397-0.98379-0.72704-1.8095c-1.0295-2.5622-1.106-2.9358-0.65793-3.2127 0.70416-0.43519 3.1289 0.19574 4.0567 1.0556l0.90112 0.83514-0.97337 2.0543c-1.6478 3.4778-3.8472 7.3175-6.2489 10.91-2.2067 3.3004-2.4742 4.0493-1.4462 4.0493 0.67717 0 7.4459-5.5379 9.7041-7.9394l1.9097-2.031 2.2308 0.23889c2.7198 0.29127 3.8094 1.0652 4.9508 3.5164 0.93774 2.0139 1.0796 4.364 0.44347 7.3467-0.65479 3.0703-10.155 29.233-11.657 32.102-1.2736 2.433-1.6084 2.7901-4.0612 4.331l-2.6732 1.6794-6.4262-0.0677c-3.5344-0.0372-7.8964-0.15654-9.6934-0.26516z" stroke="#000" stroke-width=".21213"/>
   <path d="m150.82 156.1c2.0387-1.3067 2.7547-2.0674 3.6998-3.9312l0.87398-1.7235 1.2975 1.2722c0.71363 0.69972 1.7442 2.0719 2.2902 3.0493l0.99267 1.7771h-2.9737c-1.6356 0-3.9914 0.09-5.2353 0.19991l-2.2616 0.19991 1.3164-0.84372z" stroke="#000" stroke-width=".21213"/>
  </g>
  <path d="m141.12 107.86c6.6162-1.695 12.281-0.70754 15.25 7.875 1.5164-9.5679 1.3615-16.88-3.75-17.5-2.4264 3.6344-4.37 7.494-11.625 8.875z" fill="none" stroke="#000"/>
  <g transform="translate(-.27208,.35103)" fill="#b3b3b3" opacity=".4244" stroke="#000">
   <path d="m150.78662,156.48092-.35329-.37657 .60632-.37473c.33347-.2061.69008-.37472.79246-.37472 .47194,0 1.83133-1.70598 2.68741-3.37259l.9203-1.79163 .7124.68176c1.52195,1.45647 4.08368,5.36638 3.7412,5.7101-.0538.054-2.04536.13796-4.42567.18657-4.24452.0867-4.33463.0811-4.68113-.28819z" stroke-width=".10607"/>
   <path d="m140.19 144.94c-3.7556-4.0303-7.6791-7.7678-9.8184-9.3531-2.5723-1.9062-5.8362-3.2772-11.603-4.8739-0.29686-0.0822-0.52556-0.16281-0.50823-0.17915 0.066-0.0622 0.97987-0.22226 1.4369-0.25164 1.2252-0.0788 2.2422 0.12499 3.8317 0.76756 0.40106 0.16214 2.539 1.051 4.7509 1.9752 8.8098 3.6811 9.7811 4.0724 11.064 4.4577 1.7784 0.53391 2.0854 0.60248 2.8866 0.64487 0.83064 0.0439 1.4623-0.0912 2.0823-0.44556 0.24549-0.14031 0.33799-0.17556 0.32191-0.12271l-1.329 4.5599c-0.71857 2.4671-1.3214 4.532-1.3395 4.5886-0.0298 0.0927-0.20651-0.0832-1.7763-1.7678z" stroke-width=".02652"/>
  </g>
  <path d="m136.91 117.01c-3.7588 0-6.8125 2.9052-6.8125 6.4688 0 0.49218 0.0774 0.9769 0.1875 1.4375 0.47743-2.5545 2.1057-5.023 5.0312-6.375 1.2357-0.57106 2.4696-0.97094 3.625-1.2188-0.63934-0.18852-1.3265-0.3125-2.0312-0.3125z" fill="#fff" opacity=".5415"/>
  <path d="m116.84 115.22c-2.3127 0-4.1875 3.232-4.1875 7.2188s1.8748 7.2188 4.1875 7.2188c0.5337 0 1.0306-0.21746 1.5-0.53125-0.23186 0.0806-0.47421 0.15625-0.71875 0.15625-2.1228 0-3.8438-3.176-3.8438-7.0938 0-3.428 1.311-6.3073 3.0625-6.9688z" fill="#fff" opacity=".5415"/>
  <path d="m97.75,111.79968c-2.00407,2.35004-2.78124,5.24537-6.6875,6.75-8.10821-2.00716-11.59568-7.53183-15.5-13.375-1.20435-3.27434-.3653-5.4341.1875-7.75 .35879-.62594.97586-.83862 1.625-1-.79238-.82185-.48486-1.55402-.5-2.3125 .66667-.27684 1.33333-.98653 2,.0625 .2582-.86949.13158-1.88865 1.375-2.375 .89242.21983 1.95106.21803 2,1.5625 1.08332-.42393 1.619-1.32406 3.5625-1 .51633.73983.63193-.009 1.34153,2.5-.50048,1.04359-.51807,1.9455.15533,3.59532" fill="none" stroke="#000"/>
  <path d="m87.25 98.3c0.59306 1.8444 1.7786 3.0964 2.8125 4.5-0.74138-3.6703-0.13091-4.6681 0.59375-5.4062 0.9375-0.29984 1.875-0.40832 2.8125-0.375l1.6562 6.1562c1.2264 2.9402 1.9989 5.8682 1.0625 8.75l0.0625 1.125" fill="none" stroke="#000"/>
  <path d="m102 107.11z" fill="none" stroke="#000"/>
  <path d="m77.251 96.707c0.18528 4.0671 1.1483 7.9806 4.331 9.2808" fill="none" stroke="#000"/>
  <path d="m79.019 94.586c0.2357 4.3016 2.1213 7.7782 4.9498 9.7227" fill="none" stroke="#000"/>
  <path d="m81.848 93.349c0.51445 3.7949 1.2651 7.3966 4.331 9.104" fill="none" stroke="#000"/>
  <path d="m89.71814,117.54246c-4.7024-1.59407-7.87738-4.31662-11.98579-10.27781-2.27943-3.30739-2.54658-4.37246-1.89603-7.5588 .49489-2.42392.79689-2.7715.97352-1.12047 .39618,3.70322 2.05022,6.86142 4.02105,7.67777 .47412.19639.56633.18367.77921-.10747 .36764-.50278.29894-.68163-.40796-1.06213-1.68962-.90946-2.83168-3.37582-3.21218-6.93692-.10915-1.02152-.08685-1.28643.11481-1.36382s.15063-.22667-.21118-.70103c-.52544-.68888-.61463-1.59263-.17388-1.76176 .48285-.18529.71929.20071.83906,1.3698 .32723,3.19391 2.02509,6.67705 4.04526,8.29877 1.07616.8639 1.1233.87669 1.44149.39107 .28534-.43549.27576-.45202-1.00247-1.73025-1.88802-1.88802-2.58731-3.44877-3.47707-7.76041-.09184-.44505-.04497-.92292.14738-1.5026 .26637-.80276.31521-.84842.87873-.82153 .71347.03405 1.31083.51663.93054.75175-.18198.11251-.20942.37995-.11271,1.09846 .21026,1.56212.899,4.06279 1.42274,5.16562 .53249,1.12127 1.87783,2.71095 2.63899,3.11832 .44372.23747.49731.22565.80062-.17645l.32507-.43096-1.01476-.91831c-1.54869-1.40148-2.48985-3.483-2.92248-6.46351l-.12074-.83182 .84934-.42803c1.67402-.84363 2.28349-.74812 2.77798.43536 .18147.43432.22566,1.0047.15626,2.01709-.0864,1.26062-.04411,1.54362.39552,2.6467 .27075.67934.69146,1.55336.93493,1.94227 .86698,1.38492 3.10347,4.21999 3.17047,4.01901 .03748-.11244-.05677-1.04524-.20944-2.07288-.34997-2.35566-.34927-3.15585.0034-3.89901 .24129-.50849.41687-.62251 1.24334-.80747 .57947-.12968 1.01939-.1509 1.10568-.05334 .07882.08912.43421,1.2834.78975,2.65396s.91717,3.27975 1.24807,4.24264c.82025,2.3869 1.05931,3.72287.92273,5.15648-.06238.65474-.16209,1.68762-.22157,2.29529-.07774.79411-.04929,1.10485.10115,1.10485 .29023,0-1.14826,2.03756-2.09759,2.97115-.75042.73798-2.38522,1.80313-2.75381,1.79424-.09723-.002-.65407-.16606-1.23744-.36381h-1e-006z" fill="#ebaf75" stroke="#000" stroke-width=".10607"/>
 </g>
</svg>
